{
	"asset":{
		"generator":"Khronos glTF Blender I/O v4.2.57",
		"version":"2.0"
	},
	"extensionsUsed":[
		"KHR_materials_specular"
	],
	"scene":0,
	"scenes":[
		{
			"name":"Scene",
			"nodes":[
				0
			]
		}
	],
	"nodes":[
		{
			"extras":{
				"file_name":"flower_orange",
				"craftkit_category":"decor"
			},
			"mesh":0,
			"name":"flower_orange"
		}
	],
	"materials":[
		{
			"doubleSided":true,
			"extensions":{
				"KHR_materials_specular":{
					"specularFactor":0.6000000238418579
				}
			},
			"name":"M_paper_grass",
			"pbrMetallicRoughness":{
				"baseColorTexture":{
					"index":0
				},
				"metallicFactor":0,
				"roughnessFactor":0.800000011920929
			}
		},
		{
			"doubleSided":true,
			"extensions":{
				"KHR_materials_specular":{
					"specularFactor":0.6000000238418579
				}
			},
			"name":"M_paper_orange",
			"pbrMetallicRoughness":{
				"baseColorTexture":{
					"index":1
				},
				"metallicFactor":0,
				"roughnessFactor":0.800000011920929
			}
		},
		{
			"doubleSided":true,
			"extensions":{
				"KHR_materials_specular":{
					"specularFactor":0.6000000238418579
				}
			},
			"name":"M_paper_yellow",
			"pbrMetallicRoughness":{
				"baseColorTexture":{
					"index":2
				},
				"metallicFactor":0,
				"roughnessFactor":0.800000011920929
			}
		}
	],
	"meshes":[
		{
			"name":"flower_orange",
			"primitives":[
				{
					"attributes":{
						"POSITION":0,
						"NORMAL":1,
						"TEXCOORD_0":2
					},
					"indices":3,
					"material":0
				},
				{
					"attributes":{
						"POSITION":4,
						"NORMAL":5,
						"TEXCOORD_0":6
					},
					"indices":7,
					"material":1
				},
				{
					"attributes":{
						"POSITION":8,
						"NORMAL":9,
						"TEXCOORD_0":10
					},
					"indices":11,
					"material":2
				}
			]
		}
	],
	"textures":[
		{
			"sampler":0,
			"source":0
		},
		{
			"sampler":0,
			"source":1
		},
		{
			"sampler":0,
			"source":2
		}
	],
	"images":[
		{
			"mimeType":"image/png",
			"name":"paper_grass.png",
			"uri":"../textures/paper_grass.png"
		},
		{
			"mimeType":"image/png",
			"name":"paper_orange.png",
			"uri":"../textures/paper_orange.png"
		},
		{
			"mimeType":"image/png",
			"name":"paper_yellow.png",
			"uri":"../textures/paper_yellow.png"
		}
	],
	"accessors":[
		{
			"bufferView":0,
			"componentType":5126,
			"count":180,
			"max":[
				0.05190499871969223,
				0.44999998807907104,
				0.017999999225139618
			],
			"min":[
				-0.0777343362569809,
				0,
				-0.017999999225139618
			],
			"type":"VEC3"
		},
		{
			"bufferView":1,
			"componentType":5126,
			"count":180,
			"type":"VEC3"
		},
		{
			"bufferView":2,
			"componentType":5126,
			"count":180,
			"type":"VEC2"
		},
		{
			"bufferView":3,
			"componentType":5123,
			"count":456,
			"type":"SCALAR"
		},
		{
			"bufferView":4,
			"componentType":5126,
			"count":372,
			"max":[
				0.1599999964237213,
				0.6043371558189392,
				0.006000000052154064
			],
			"min":[
				-0.13846687972545624,
				0.2956628203392029,
				-0.006000000052154064
			],
			"type":"VEC3"
		},
		{
			"bufferView":5,
			"componentType":5126,
			"count":372,
			"type":"VEC3"
		},
		{
			"bufferView":6,
			"componentType":5126,
			"count":372,
			"type":"VEC2"
		},
		{
			"bufferView":7,
			"componentType":5123,
			"count":1068,
			"type":"SCALAR"
		},
		{
			"bufferView":8,
			"componentType":5126,
			"count":130,
			"max":[
				0.054999999701976776,
				0.5049999952316284,
				0.029999999329447746
			],
			"min":[
				-0.054999999701976776,
				0.39499998092651367,
				0
			],
			"type":"VEC3"
		},
		{
			"bufferView":9,
			"componentType":5126,
			"count":130,
			"type":"VEC3"
		},
		{
			"bufferView":10,
			"componentType":5126,
			"count":130,
			"type":"VEC2"
		},
		{
			"bufferView":11,
			"componentType":5123,
			"count":372,
			"type":"SCALAR"
		}
	],
	"bufferViews":[
		{
			"buffer":0,
			"byteLength":2160,
			"byteOffset":0,
			"target":34962
		},
		{
			"buffer":0,
			"byteLength":2160,
			"byteOffset":2160,
			"target":34962
		},
		{
			"buffer":0,
			"byteLength":1440,
			"byteOffset":4320,
			"target":34962
		},
		{
			"buffer":0,
			"byteLength":912,
			"byteOffset":5760,
			"target":34963
		},
		{
			"buffer":0,
			"byteLength":4464,
			"byteOffset":6672,
			"target":34962
		},
		{
			"buffer":0,
			"byteLength":4464,
			"byteOffset":11136,
			"target":34962
		},
		{
			"buffer":0,
			"byteLength":2976,
			"byteOffset":15600,
			"target":34962
		},
		{
			"buffer":0,
			"byteLength":2136,
			"byteOffset":18576,
			"target":34963
		},
		{
			"buffer":0,
			"byteLength":1560,
			"byteOffset":20712,
			"target":34962
		},
		{
			"buffer":0,
			"byteLength":1560,
			"byteOffset":22272,
			"target":34962
		},
		{
			"buffer":0,
			"byteLength":1040,
			"byteOffset":23832,
			"target":34962
		},
		{
			"buffer":0,
			"byteLength":744,
			"byteOffset":24872,
			"target":34963
		}
	],
	"samplers":[
		{
			"magFilter":9729,
			"minFilter":9987
		}
	],
	"buffers":[
		{
			"byteLength":25616,
			"uri":"flower_orange.bin"
		}
	]
}
