{
	"asset":{
		"generator":"Khronos glTF Blender I/O v4.2.57",
		"version":"2.0"
	},
	"extensionsUsed":[
		"KHR_materials_specular",
		"KHR_materials_sheen"
	],
	"scene":0,
	"scenes":[
		{
			"name":"Scene",
			"nodes":[
				0
			]
		}
	],
	"nodes":[
		{
			"extras":{
				"file_name":"ground_block_step",
				"collider":"BOX",
				"collider_center":[
					-0.0001,
					0.0003,
					0.31
				],
				"collider_size":[
					2.0278,
					2.0268,
					0.62
				],
				"craftkit_category":"ground"
			},
			"mesh":0,
			"name":"ground_block_step"
		}
	],
	"materials":[
		{
			"doubleSided":true,
			"extensions":{
				"KHR_materials_specular":{
					"specularFactor":0.6000000238418579
				}
			},
			"name":"M_kraft",
			"pbrMetallicRoughness":{
				"baseColorTexture":{
					"index":0
				},
				"metallicFactor":0,
				"roughnessFactor":0.8999999761581421
			}
		},
		{
			"doubleSided":true,
			"extensions":{
				"KHR_materials_specular":{
					"specularFactor":0.6000000238418579
				}
			},
			"name":"M_kraft_edge",
			"pbrMetallicRoughness":{
				"baseColorTexture":{
					"index":1
				},
				"metallicFactor":0,
				"roughnessFactor":0.949999988079071
			}
		},
		{
			"doubleSided":true,
			"extensions":{
				"KHR_materials_specular":{
					"specularFactor":0.6000000238418579
				},
				"KHR_materials_sheen":{
					"sheenColorFactor":[
						1.0,
						1.0,
						1.0
					],
					"sheenRoughnessFactor":0.6000000238418579
				}
			},
			"name":"M_felt_grass",
			"pbrMetallicRoughness":{
				"baseColorTexture":{
					"index":2
				},
				"metallicFactor":0
			}
		}
	],
	"meshes":[
		{
			"name":"ground_block_step",
			"primitives":[
				{
					"attributes":{
						"POSITION":0,
						"NORMAL":1,
						"TEXCOORD_0":2
					},
					"indices":3,
					"material":0
				},
				{
					"attributes":{
						"POSITION":4,
						"NORMAL":5,
						"TEXCOORD_0":6
					},
					"indices":7,
					"material":1
				},
				{
					"attributes":{
						"POSITION":8,
						"NORMAL":9,
						"TEXCOORD_0":10
					},
					"indices":11,
					"material":2
				}
			]
		}
	],
	"textures":[
		{
			"sampler":0,
			"source":0
		},
		{
			"sampler":0,
			"source":1
		},
		{
			"sampler":0,
			"source":2
		}
	],
	"images":[
		{
			"mimeType":"image/png",
			"name":"kraft.png",
			"uri":"../textures/kraft.png"
		},
		{
			"mimeType":"image/png",
			"name":"kraft_edge.png",
			"uri":"../textures/kraft_edge.png"
		},
		{
			"mimeType":"image/png",
			"name":"felt_grass.png",
			"uri":"../textures/felt_grass.png"
		}
	],
	"accessors":[
		{
			"bufferView":0,
			"componentType":5126,
			"count":200,
			"max":[
				1.0138593912124634,
				0.6000000238418579,
				1.0130943059921265
			],
			"min":[
				-1.0139728784561157,
				0,
				-1.0137325525283813
			],
			"type":"VEC3"
		},
		{
			"bufferView":1,
			"componentType":5126,
			"count":200,
			"type":"VEC3"
		},
		{
			"bufferView":2,
			"componentType":5126,
			"count":200,
			"type":"VEC2"
		},
		{
			"bufferView":3,
			"componentType":5123,
			"count":552,
			"type":"SCALAR"
		},
		{
			"bufferView":4,
			"componentType":5126,
			"count":72,
			"max":[
				1.0138593912124634,
				0.6000000238418579,
				1.0130943059921265
			],
			"min":[
				-1.0139728784561157,
				0.5,
				-1.0137325525283813
			],
			"type":"VEC3"
		},
		{
			"bufferView":5,
			"componentType":5126,
			"count":72,
			"type":"VEC3"
		},
		{
			"bufferView":6,
			"componentType":5126,
			"count":72,
			"type":"VEC2"
		},
		{
			"bufferView":7,
			"componentType":5123,
			"count":192,
			"type":"SCALAR"
		},
		{
			"bufferView":8,
			"componentType":5126,
			"count":264,
			"max":[
				0.9908329844474792,
				0.6200000047683716,
				0.9872681498527527
			],
			"min":[
				-0.9890361428260803,
				0.6000000238418579,
				-0.9919971227645874
			],
			"type":"VEC3"
		},
		{
			"bufferView":9,
			"componentType":5126,
			"count":264,
			"type":"VEC3"
		},
		{
			"bufferView":10,
			"componentType":5126,
			"count":264,
			"type":"VEC2"
		},
		{
			"bufferView":11,
			"componentType":5123,
			"count":756,
			"type":"SCALAR"
		}
	],
	"bufferViews":[
		{
			"buffer":0,
			"byteLength":2400,
			"byteOffset":0,
			"target":34962
		},
		{
			"buffer":0,
			"byteLength":2400,
			"byteOffset":2400,
			"target":34962
		},
		{
			"buffer":0,
			"byteLength":1600,
			"byteOffset":4800,
			"target":34962
		},
		{
			"buffer":0,
			"byteLength":1104,
			"byteOffset":6400,
			"target":34963
		},
		{
			"buffer":0,
			"byteLength":864,
			"byteOffset":7504,
			"target":34962
		},
		{
			"buffer":0,
			"byteLength":864,
			"byteOffset":8368,
			"target":34962
		},
		{
			"buffer":0,
			"byteLength":576,
			"byteOffset":9232,
			"target":34962
		},
		{
			"buffer":0,
			"byteLength":384,
			"byteOffset":9808,
			"target":34963
		},
		{
			"buffer":0,
			"byteLength":3168,
			"byteOffset":10192,
			"target":34962
		},
		{
			"buffer":0,
			"byteLength":3168,
			"byteOffset":13360,
			"target":34962
		},
		{
			"buffer":0,
			"byteLength":2112,
			"byteOffset":16528,
			"target":34962
		},
		{
			"buffer":0,
			"byteLength":1512,
			"byteOffset":18640,
			"target":34963
		}
	],
	"samplers":[
		{
			"magFilter":9729,
			"minFilter":9987
		}
	],
	"buffers":[
		{
			"byteLength":20152,
			"uri":"ground_block_step.bin"
		}
	]
}
