{
	"asset":{
		"generator":"Khronos glTF Blender I/O v4.2.57",
		"version":"2.0"
	},
	"extensionsUsed":[
		"KHR_materials_specular",
		"KHR_materials_sheen"
	],
	"scene":0,
	"scenes":[
		{
			"name":"Scene",
			"nodes":[
				0
			]
		}
	],
	"nodes":[
		{
			"extras":{
				"file_name":"ground_tile_grass",
				"collider":"BOX",
				"collider_center":[
					-0.0002,
					-0.0008,
					0.07
				],
				"collider_size":[
					2.0109,
					2.0103,
					0.14
				],
				"craftkit_category":"ground"
			},
			"mesh":0,
			"name":"ground_tile_grass"
		}
	],
	"materials":[
		{
			"doubleSided":true,
			"extensions":{
				"KHR_materials_specular":{
					"specularFactor":0.6000000238418579
				}
			},
			"name":"M_kraft",
			"pbrMetallicRoughness":{
				"baseColorTexture":{
					"index":0
				},
				"metallicFactor":0,
				"roughnessFactor":0.8999999761581421
			}
		},
		{
			"doubleSided":true,
			"extensions":{
				"KHR_materials_specular":{
					"specularFactor":0.6000000238418579
				}
			},
			"name":"M_kraft_edge",
			"pbrMetallicRoughness":{
				"baseColorTexture":{
					"index":1
				},
				"metallicFactor":0,
				"roughnessFactor":0.949999988079071
			}
		},
		{
			"doubleSided":true,
			"extensions":{
				"KHR_materials_specular":{
					"specularFactor":0.6000000238418579
				},
				"KHR_materials_sheen":{
					"sheenColorFactor":[
						1.0,
						1.0,
						1.0
					],
					"sheenRoughnessFactor":0.6000000238418579
				}
			},
			"name":"M_felt_grass",
			"pbrMetallicRoughness":{
				"baseColorTexture":{
					"index":2
				},
				"metallicFactor":0
			}
		}
	],
	"meshes":[
		{
			"name":"ground_tile_grass",
			"primitives":[
				{
					"attributes":{
						"POSITION":0,
						"NORMAL":1,
						"TEXCOORD_0":2
					},
					"indices":3,
					"material":0
				},
				{
					"attributes":{
						"POSITION":4,
						"NORMAL":5,
						"TEXCOORD_0":6
					},
					"indices":7,
					"material":1
				},
				{
					"attributes":{
						"POSITION":8,
						"NORMAL":9,
						"TEXCOORD_0":10
					},
					"indices":11,
					"material":2
				}
			]
		}
	],
	"textures":[
		{
			"sampler":0,
			"source":0
		},
		{
			"sampler":0,
			"source":1
		},
		{
			"sampler":0,
			"source":2
		}
	],
	"images":[
		{
			"mimeType":"image/png",
			"name":"kraft.png",
			"uri":"../textures/kraft.png"
		},
		{
			"mimeType":"image/png",
			"name":"kraft_edge.png",
			"uri":"../textures/kraft_edge.png"
		},
		{
			"mimeType":"image/png",
			"name":"felt_grass.png",
			"uri":"../textures/felt_grass.png"
		}
	],
	"accessors":[
		{
			"bufferView":0,
			"componentType":5126,
			"count":64,
			"max":[
				1.0052697658538818,
				0.11999999731779099,
				1.0059747695922852
			],
			"min":[
				-1.0055856704711914,
				0,
				-1.0043193101882935
			],
			"type":"VEC3"
		},
		{
			"bufferView":1,
			"componentType":5126,
			"count":64,
			"type":"VEC3"
		},
		{
			"bufferView":2,
			"componentType":5126,
			"count":64,
			"type":"VEC2"
		},
		{
			"bufferView":3,
			"componentType":5123,
			"count":180,
			"type":"SCALAR"
		},
		{
			"bufferView":4,
			"componentType":5126,
			"count":72,
			"max":[
				1.0052697658538818,
				0.11999999731779099,
				1.0059747695922852
			],
			"min":[
				-1.0055856704711914,
				0,
				-1.0043193101882935
			],
			"type":"VEC3"
		},
		{
			"bufferView":5,
			"componentType":5126,
			"count":72,
			"type":"VEC3"
		},
		{
			"bufferView":6,
			"componentType":5126,
			"count":72,
			"type":"VEC2"
		},
		{
			"bufferView":7,
			"componentType":5123,
			"count":192,
			"type":"SCALAR"
		},
		{
			"bufferView":8,
			"componentType":5126,
			"count":264,
			"max":[
				0.9810856580734253,
				0.14000000059604645,
				0.9814274311065674
			],
			"min":[
				-0.9814925789833069,
				0.11999999731779099,
				-0.9804197549819946
			],
			"type":"VEC3"
		},
		{
			"bufferView":9,
			"componentType":5126,
			"count":264,
			"type":"VEC3"
		},
		{
			"bufferView":10,
			"componentType":5126,
			"count":264,
			"type":"VEC2"
		},
		{
			"bufferView":11,
			"componentType":5123,
			"count":756,
			"type":"SCALAR"
		}
	],
	"bufferViews":[
		{
			"buffer":0,
			"byteLength":768,
			"byteOffset":0,
			"target":34962
		},
		{
			"buffer":0,
			"byteLength":768,
			"byteOffset":768,
			"target":34962
		},
		{
			"buffer":0,
			"byteLength":512,
			"byteOffset":1536,
			"target":34962
		},
		{
			"buffer":0,
			"byteLength":360,
			"byteOffset":2048,
			"target":34963
		},
		{
			"buffer":0,
			"byteLength":864,
			"byteOffset":2408,
			"target":34962
		},
		{
			"buffer":0,
			"byteLength":864,
			"byteOffset":3272,
			"target":34962
		},
		{
			"buffer":0,
			"byteLength":576,
			"byteOffset":4136,
			"target":34962
		},
		{
			"buffer":0,
			"byteLength":384,
			"byteOffset":4712,
			"target":34963
		},
		{
			"buffer":0,
			"byteLength":3168,
			"byteOffset":5096,
			"target":34962
		},
		{
			"buffer":0,
			"byteLength":3168,
			"byteOffset":8264,
			"target":34962
		},
		{
			"buffer":0,
			"byteLength":2112,
			"byteOffset":11432,
			"target":34962
		},
		{
			"buffer":0,
			"byteLength":1512,
			"byteOffset":13544,
			"target":34963
		}
	],
	"samplers":[
		{
			"magFilter":9729,
			"minFilter":9987
		}
	],
	"buffers":[
		{
			"byteLength":15056,
			"uri":"ground_tile_grass.bin"
		}
	]
}
