{
	"asset":{
		"generator":"Khronos glTF Blender I/O v4.2.57",
		"version":"2.0"
	},
	"extensionsUsed":[
		"KHR_materials_specular"
	],
	"scene":0,
	"scenes":[
		{
			"name":"Scene",
			"nodes":[
				0
			]
		}
	],
	"nodes":[
		{
			"extras":{
				"file_name":"menu_target",
				"collider":"BOX",
				"collider_center":[
					0.0,
					-0.0155,
					0.603
				],
				"collider_size":[
					0.84,
					0.081,
					1.206
				],
				"craftkit_category":"title"
			},
			"mesh":0,
			"name":"menu_target"
		}
	],
	"materials":[
		{
			"doubleSided":true,
			"extensions":{
				"KHR_materials_specular":{
					"specularFactor":0.6000000238418579
				}
			},
			"name":"M_wood_stick",
			"pbrMetallicRoughness":{
				"baseColorTexture":{
					"index":0
				},
				"metallicFactor":0,
				"roughnessFactor":0.800000011920929
			}
		},
		{
			"doubleSided":true,
			"extensions":{
				"KHR_materials_specular":{
					"specularFactor":0.6000000238418579
				}
			},
			"name":"M_paper_red",
			"pbrMetallicRoughness":{
				"baseColorTexture":{
					"index":1
				},
				"metallicFactor":0,
				"roughnessFactor":0.800000011920929
			}
		},
		{
			"doubleSided":true,
			"extensions":{
				"KHR_materials_specular":{
					"specularFactor":0.6000000238418579
				}
			},
			"name":"M_kraft_edge",
			"pbrMetallicRoughness":{
				"baseColorTexture":{
					"index":2
				},
				"metallicFactor":0,
				"roughnessFactor":0.949999988079071
			}
		},
		{
			"doubleSided":true,
			"extensions":{
				"KHR_materials_specular":{
					"specularFactor":0.6000000238418579
				}
			},
			"name":"M_menu_face",
			"pbrMetallicRoughness":{
				"baseColorTexture":{
					"index":3
				},
				"metallicFactor":0,
				"roughnessFactor":0.800000011920929
			}
		}
	],
	"meshes":[
		{
			"name":"menu_target",
			"primitives":[
				{
					"attributes":{
						"POSITION":0,
						"NORMAL":1,
						"TEXCOORD_0":2
					},
					"indices":3,
					"material":0
				},
				{
					"attributes":{
						"POSITION":4,
						"NORMAL":5,
						"TEXCOORD_0":6
					},
					"indices":7,
					"material":1
				},
				{
					"attributes":{
						"POSITION":8,
						"NORMAL":9,
						"TEXCOORD_0":10
					},
					"indices":11,
					"material":2
				},
				{
					"attributes":{
						"POSITION":12,
						"NORMAL":13,
						"TEXCOORD_0":14
					},
					"indices":15,
					"material":3
				}
			]
		}
	],
	"textures":[
		{
			"sampler":0,
			"source":0
		},
		{
			"sampler":0,
			"source":1
		},
		{
			"sampler":0,
			"source":2
		},
		{
			"sampler":0,
			"source":3
		}
	],
	"images":[
		{
			"mimeType":"image/png",
			"name":"wood_stick.png",
			"uri":"../textures/wood_stick.png"
		},
		{
			"mimeType":"image/png",
			"name":"paper_red.png",
			"uri":"../textures/paper_red.png"
		},
		{
			"mimeType":"image/png",
			"name":"kraft_edge.png",
			"uri":"../textures/kraft_edge.png"
		},
		{
			"mimeType":"image/png",
			"name":"menu_placeholder.png",
			"uri":"../textures/menu_placeholder.png"
		}
	],
	"accessors":[
		{
			"bufferView":0,
			"componentType":5126,
			"count":48,
			"max":[
				0.02500000037252903,
				0.44999998807907104,
				0.02500000037252903
			],
			"min":[
				-0.02500000037252903,
				0,
				-0.02500000037252903
			],
			"type":"VEC3"
		},
		{
			"bufferView":1,
			"componentType":5126,
			"count":48,
			"type":"VEC3"
		},
		{
			"bufferView":2,
			"componentType":5126,
			"count":48,
			"type":"VEC2"
		},
		{
			"bufferView":3,
			"componentType":5123,
			"count":84,
			"type":"SCALAR"
		},
		{
			"bufferView":4,
			"componentType":5126,
			"count":96,
			"max":[
				0.41999998688697815,
				1.2059999704360962,
				0.04999999701976776
			],
			"min":[
				-0.41999998688697815,
				0.3659999966621399,
				0.009999999776482582
			],
			"type":"VEC3"
		},
		{
			"bufferView":5,
			"componentType":5126,
			"count":96,
			"type":"VEC3"
		},
		{
			"bufferView":6,
			"componentType":5126,
			"count":96,
			"type":"VEC2"
		},
		{
			"bufferView":7,
			"componentType":5123,
			"count":276,
			"type":"SCALAR"
		},
		{
			"bufferView":8,
			"componentType":5126,
			"count":98,
			"max":[
				0.41999998688697815,
				1.2059999704360962,
				0.04999999701976776
			],
			"min":[
				-0.41999998688697815,
				0.3659999966621399,
				0.009999999776482582
			],
			"type":"VEC3"
		},
		{
			"bufferView":9,
			"componentType":5126,
			"count":98,
			"type":"VEC3"
		},
		{
			"bufferView":10,
			"componentType":5126,
			"count":98,
			"type":"VEC2"
		},
		{
			"bufferView":11,
			"componentType":5123,
			"count":288,
			"type":"SCALAR"
		},
		{
			"bufferView":12,
			"componentType":5126,
			"count":194,
			"max":[
				0.34439998865127563,
				1.1303999423980713,
				0.0559999980032444
			],
			"min":[
				-0.34439998865127563,
				0.4415999948978424,
				0.05000000074505806
			],
			"type":"VEC3"
		},
		{
			"bufferView":13,
			"componentType":5126,
			"count":194,
			"type":"VEC3"
		},
		{
			"bufferView":14,
			"componentType":5126,
			"count":194,
			"type":"VEC2"
		},
		{
			"bufferView":15,
			"componentType":5123,
			"count":564,
			"type":"SCALAR"
		}
	],
	"bufferViews":[
		{
			"buffer":0,
			"byteLength":576,
			"byteOffset":0,
			"target":34962
		},
		{
			"buffer":0,
			"byteLength":576,
			"byteOffset":576,
			"target":34962
		},
		{
			"buffer":0,
			"byteLength":384,
			"byteOffset":1152,
			"target":34962
		},
		{
			"buffer":0,
			"byteLength":168,
			"byteOffset":1536,
			"target":34963
		},
		{
			"buffer":0,
			"byteLength":1152,
			"byteOffset":1704,
			"target":34962
		},
		{
			"buffer":0,
			"byteLength":1152,
			"byteOffset":2856,
			"target":34962
		},
		{
			"buffer":0,
			"byteLength":768,
			"byteOffset":4008,
			"target":34962
		},
		{
			"buffer":0,
			"byteLength":552,
			"byteOffset":4776,
			"target":34963
		},
		{
			"buffer":0,
			"byteLength":1176,
			"byteOffset":5328,
			"target":34962
		},
		{
			"buffer":0,
			"byteLength":1176,
			"byteOffset":6504,
			"target":34962
		},
		{
			"buffer":0,
			"byteLength":784,
			"byteOffset":7680,
			"target":34962
		},
		{
			"buffer":0,
			"byteLength":576,
			"byteOffset":8464,
			"target":34963
		},
		{
			"buffer":0,
			"byteLength":2328,
			"byteOffset":9040,
			"target":34962
		},
		{
			"buffer":0,
			"byteLength":2328,
			"byteOffset":11368,
			"target":34962
		},
		{
			"buffer":0,
			"byteLength":1552,
			"byteOffset":13696,
			"target":34962
		},
		{
			"buffer":0,
			"byteLength":1128,
			"byteOffset":15248,
			"target":34963
		}
	],
	"samplers":[
		{
			"magFilter":9729,
			"minFilter":9987
		}
	],
	"buffers":[
		{
			"byteLength":16376,
			"uri":"menu_target.bin"
		}
	]
}
