{
	"asset":{
		"generator":"Khronos glTF Blender I/O v4.2.57",
		"version":"2.0"
	},
	"extensionsUsed":[
		"KHR_materials_specular"
	],
	"scene":0,
	"scenes":[
		{
			"name":"Scene",
			"nodes":[
				0
			]
		}
	],
	"nodes":[
		{
			"extras":{
				"file_name":"paper_rock_00",
				"collider":"BOX",
				"collider_center":[
					-0.0008,
					-0.0041,
					0.2237
				],
				"collider_size":[
					0.6402,
					0.6252,
					0.4761
				],
				"craftkit_category":"prop"
			},
			"mesh":0,
			"name":"paper_rock_00"
		}
	],
	"materials":[
		{
			"doubleSided":true,
			"extensions":{
				"KHR_materials_specular":{
					"specularFactor":0.6000000238418579
				}
			},
			"name":"M_paper_stone",
			"pbrMetallicRoughness":{
				"baseColorTexture":{
					"index":0
				},
				"metallicFactor":0,
				"roughnessFactor":0.800000011920929
			}
		}
	],
	"meshes":[
		{
			"name":"paper_rock_00",
			"primitives":[
				{
					"attributes":{
						"POSITION":0,
						"NORMAL":1,
						"TEXCOORD_0":2
					},
					"indices":3,
					"material":0
				}
			]
		}
	],
	"textures":[
		{
			"sampler":0,
			"source":0
		}
	],
	"images":[
		{
			"mimeType":"image/png",
			"name":"paper_stone.png",
			"uri":"../textures/paper_stone.png"
		}
	],
	"accessors":[
		{
			"bufferView":0,
			"componentType":5126,
			"count":536,
			"max":[
				0.3192751705646515,
				0.46174266934394836,
				0.31672778725624084
			],
			"min":[
				-0.32093197107315063,
				-0.014384523034095764,
				-0.3084794878959656
			],
			"type":"VEC3"
		},
		{
			"bufferView":1,
			"componentType":5126,
			"count":536,
			"type":"VEC3"
		},
		{
			"bufferView":2,
			"componentType":5126,
			"count":536,
			"type":"VEC2"
		},
		{
			"bufferView":3,
			"componentType":5123,
			"count":960,
			"type":"SCALAR"
		}
	],
	"bufferViews":[
		{
			"buffer":0,
			"byteLength":6432,
			"byteOffset":0,
			"target":34962
		},
		{
			"buffer":0,
			"byteLength":6432,
			"byteOffset":6432,
			"target":34962
		},
		{
			"buffer":0,
			"byteLength":4288,
			"byteOffset":12864,
			"target":34962
		},
		{
			"buffer":0,
			"byteLength":1920,
			"byteOffset":17152,
			"target":34963
		}
	],
	"samplers":[
		{
			"magFilter":9729,
			"minFilter":9987
		}
	],
	"buffers":[
		{
			"byteLength":19072,
			"uri":"paper_rock_00.bin"
		}
	]
}
