{
	"asset":{
		"generator":"Khronos glTF Blender I/O v4.2.57",
		"version":"2.0"
	},
	"extensionsUsed":[
		"KHR_materials_specular"
	],
	"scene":0,
	"scenes":[
		{
			"name":"Scene",
			"nodes":[
				0
			]
		}
	],
	"nodes":[
		{
			"extras":{
				"file_name":"title_board",
				"collider":"BOX",
				"collider_center":[
					-0.0012,
					0.0145,
					1.0298
				],
				"collider_size":[
					3.2171,
					0.101,
					2.7597
				],
				"craftkit_category":"title"
			},
			"mesh":0,
			"name":"title_board"
		}
	],
	"materials":[
		{
			"doubleSided":true,
			"extensions":{
				"KHR_materials_specular":{
					"specularFactor":0.6000000238418579
				}
			},
			"name":"M_kraft",
			"pbrMetallicRoughness":{
				"baseColorTexture":{
					"index":0
				},
				"metallicFactor":0,
				"roughnessFactor":0.8999999761581421
			}
		},
		{
			"doubleSided":true,
			"extensions":{
				"KHR_materials_specular":{
					"specularFactor":0.6000000238418579
				}
			},
			"name":"M_kraft_edge",
			"pbrMetallicRoughness":{
				"baseColorTexture":{
					"index":1
				},
				"metallicFactor":0,
				"roughnessFactor":0.949999988079071
			}
		},
		{
			"doubleSided":true,
			"extensions":{
				"KHR_materials_specular":{
					"specularFactor":0.6000000238418579
				}
			},
			"name":"M_logo_face",
			"pbrMetallicRoughness":{
				"baseColorTexture":{
					"index":2
				},
				"metallicFactor":0,
				"roughnessFactor":0.800000011920929
			}
		},
		{
			"doubleSided":true,
			"extensions":{
				"KHR_materials_specular":{
					"specularFactor":0.6000000238418579
				}
			},
			"name":"M_wood_stick",
			"pbrMetallicRoughness":{
				"baseColorTexture":{
					"index":3
				},
				"metallicFactor":0,
				"roughnessFactor":0.800000011920929
			}
		}
	],
	"meshes":[
		{
			"name":"title_board",
			"primitives":[
				{
					"attributes":{
						"POSITION":0,
						"NORMAL":1,
						"TEXCOORD_0":2
					},
					"indices":3,
					"material":0
				},
				{
					"attributes":{
						"POSITION":4,
						"NORMAL":5,
						"TEXCOORD_0":6
					},
					"indices":7,
					"material":1
				},
				{
					"attributes":{
						"POSITION":8,
						"NORMAL":9,
						"TEXCOORD_0":10
					},
					"indices":11,
					"material":2
				},
				{
					"attributes":{
						"POSITION":12,
						"NORMAL":13,
						"TEXCOORD_0":14
					},
					"indices":15,
					"material":3
				}
			]
		}
	],
	"textures":[
		{
			"sampler":0,
			"source":0
		},
		{
			"sampler":0,
			"source":1
		},
		{
			"sampler":0,
			"source":2
		},
		{
			"sampler":0,
			"source":3
		}
	],
	"images":[
		{
			"mimeType":"image/png",
			"name":"kraft.png",
			"uri":"../textures/kraft.png"
		},
		{
			"mimeType":"image/png",
			"name":"kraft_edge.png",
			"uri":"../textures/kraft_edge.png"
		},
		{
			"mimeType":"image/png",
			"name":"logo_placeholder.png",
			"uri":"../textures/logo_placeholder.png"
		},
		{
			"mimeType":"image/png",
			"name":"wood_stick.png",
			"uri":"../textures/wood_stick.png"
		}
	],
	"accessors":[
		{
			"bufferView":0,
			"componentType":5126,
			"count":92,
			"max":[
				1.6073671579360962,
				2.4096601009368896,
				0.029999999329447746
			],
			"min":[
				-1.6097544431686401,
				0.9904073476791382,
				-0.029999999329447746
			],
			"type":"VEC3"
		},
		{
			"bufferView":1,
			"componentType":5126,
			"count":92,
			"type":"VEC3"
		},
		{
			"bufferView":2,
			"componentType":5126,
			"count":92,
			"type":"VEC2"
		},
		{
			"bufferView":3,
			"componentType":5123,
			"count":264,
			"type":"SCALAR"
		},
		{
			"bufferView":4,
			"componentType":5126,
			"count":100,
			"max":[
				1.6073671579360962,
				2.4096601009368896,
				0.029999999329447746
			],
			"min":[
				-1.6097544431686401,
				0.9904073476791382,
				-0.029999999329447746
			],
			"type":"VEC3"
		},
		{
			"bufferView":5,
			"componentType":5126,
			"count":100,
			"type":"VEC3"
		},
		{
			"bufferView":6,
			"componentType":5126,
			"count":100,
			"type":"VEC2"
		},
		{
			"bufferView":7,
			"componentType":5123,
			"count":276,
			"type":"SCALAR"
		},
		{
			"bufferView":8,
			"componentType":5126,
			"count":176,
			"max":[
				1.5399999618530273,
				2.3399999141693115,
				0.035999998450279236
			],
			"min":[
				-1.5399999618530273,
				1.059999942779541,
				0.029999999329447746
			],
			"type":"VEC3"
		},
		{
			"bufferView":9,
			"componentType":5126,
			"count":176,
			"type":"VEC3"
		},
		{
			"bufferView":10,
			"componentType":5126,
			"count":176,
			"type":"VEC2"
		},
		{
			"bufferView":11,
			"componentType":5123,
			"count":492,
			"type":"SCALAR"
		},
		{
			"bufferView":12,
			"componentType":5126,
			"count":48,
			"max":[
				1.1159999370574951,
				1.399999976158142,
				-0.03500000014901161
			],
			"min":[
				-1.1159999370574951,
				-0.3499999940395355,
				-0.06499999761581421
			],
			"type":"VEC3"
		},
		{
			"bufferView":13,
			"componentType":5126,
			"count":48,
			"type":"VEC3"
		},
		{
			"bufferView":14,
			"componentType":5126,
			"count":48,
			"type":"VEC2"
		},
		{
			"bufferView":15,
			"componentType":5123,
			"count":72,
			"type":"SCALAR"
		}
	],
	"bufferViews":[
		{
			"buffer":0,
			"byteLength":1104,
			"byteOffset":0,
			"target":34962
		},
		{
			"buffer":0,
			"byteLength":1104,
			"byteOffset":1104,
			"target":34962
		},
		{
			"buffer":0,
			"byteLength":736,
			"byteOffset":2208,
			"target":34962
		},
		{
			"buffer":0,
			"byteLength":528,
			"byteOffset":2944,
			"target":34963
		},
		{
			"buffer":0,
			"byteLength":1200,
			"byteOffset":3472,
			"target":34962
		},
		{
			"buffer":0,
			"byteLength":1200,
			"byteOffset":4672,
			"target":34962
		},
		{
			"buffer":0,
			"byteLength":800,
			"byteOffset":5872,
			"target":34962
		},
		{
			"buffer":0,
			"byteLength":552,
			"byteOffset":6672,
			"target":34963
		},
		{
			"buffer":0,
			"byteLength":2112,
			"byteOffset":7224,
			"target":34962
		},
		{
			"buffer":0,
			"byteLength":2112,
			"byteOffset":9336,
			"target":34962
		},
		{
			"buffer":0,
			"byteLength":1408,
			"byteOffset":11448,
			"target":34962
		},
		{
			"buffer":0,
			"byteLength":984,
			"byteOffset":12856,
			"target":34963
		},
		{
			"buffer":0,
			"byteLength":576,
			"byteOffset":13840,
			"target":34962
		},
		{
			"buffer":0,
			"byteLength":576,
			"byteOffset":14416,
			"target":34962
		},
		{
			"buffer":0,
			"byteLength":384,
			"byteOffset":14992,
			"target":34962
		},
		{
			"buffer":0,
			"byteLength":144,
			"byteOffset":15376,
			"target":34963
		}
	],
	"samplers":[
		{
			"magFilter":9729,
			"minFilter":9987
		}
	],
	"buffers":[
		{
			"byteLength":15520,
			"uri":"title_board.bin"
		}
	]
}
