{
	"asset":{
		"generator":"Khronos glTF Blender I/O v4.2.57",
		"version":"2.0"
	},
	"extensionsUsed":[
		"KHR_materials_specular",
		"KHR_materials_sheen"
	],
	"scene":0,
	"scenes":[
		{
			"name":"Scene",
			"nodes":[
				0
			]
		}
	],
	"nodes":[
		{
			"extras":{
				"file_name":"tree_cutout_01",
				"collider":"BOX",
				"collider_center":[
					0.0,
					0.0,
					0.55
				],
				"collider_size":[
					0.3,
					0.3,
					1.1
				],
				"craftkit_category":"tree"
			},
			"mesh":0,
			"name":"tree_cutout_01"
		}
	],
	"materials":[
		{
			"doubleSided":true,
			"extensions":{
				"KHR_materials_specular":{
					"specularFactor":0.6000000238418579
				}
			},
			"name":"M_kraft",
			"pbrMetallicRoughness":{
				"baseColorTexture":{
					"index":0
				},
				"metallicFactor":0,
				"roughnessFactor":0.8999999761581421
			}
		},
		{
			"doubleSided":true,
			"extensions":{
				"KHR_materials_specular":{
					"specularFactor":0.6000000238418579
				}
			},
			"name":"M_kraft_edge",
			"pbrMetallicRoughness":{
				"baseColorTexture":{
					"index":1
				},
				"metallicFactor":0,
				"roughnessFactor":0.949999988079071
			}
		},
		{
			"doubleSided":true,
			"extensions":{
				"KHR_materials_specular":{
					"specularFactor":0.6000000238418579
				},
				"KHR_materials_sheen":{
					"sheenColorFactor":[
						1.0,
						1.0,
						1.0
					],
					"sheenRoughnessFactor":0.6000000238418579
				}
			},
			"name":"M_felt_leaf",
			"pbrMetallicRoughness":{
				"baseColorTexture":{
					"index":2
				},
				"metallicFactor":0
			}
		}
	],
	"meshes":[
		{
			"name":"tree_cutout_01",
			"primitives":[
				{
					"attributes":{
						"POSITION":0,
						"NORMAL":1,
						"TEXCOORD_0":2
					},
					"indices":3,
					"material":0
				},
				{
					"attributes":{
						"POSITION":4,
						"NORMAL":5,
						"TEXCOORD_0":6
					},
					"indices":7,
					"material":1
				},
				{
					"attributes":{
						"POSITION":8,
						"NORMAL":9,
						"TEXCOORD_0":10
					},
					"indices":11,
					"material":2
				}
			]
		}
	],
	"textures":[
		{
			"sampler":0,
			"source":0
		},
		{
			"sampler":0,
			"source":1
		},
		{
			"sampler":0,
			"source":2
		}
	],
	"images":[
		{
			"mimeType":"image/png",
			"name":"kraft.png",
			"uri":"../textures/kraft.png"
		},
		{
			"mimeType":"image/png",
			"name":"kraft_edge.png",
			"uri":"../textures/kraft_edge.png"
		},
		{
			"mimeType":"image/png",
			"name":"felt_leaf.png",
			"uri":"../textures/felt_leaf.png"
		}
	],
	"accessors":[
		{
			"bufferView":0,
			"componentType":5126,
			"count":56,
			"max":[
				0.1257275938987732,
				1.102423071861267,
				0.02500000037252903
			],
			"min":[
				-0.12214770168066025,
				-0.003661859082058072,
				-0.5799999833106995
			],
			"type":"VEC3"
		},
		{
			"bufferView":1,
			"componentType":5126,
			"count":56,
			"type":"VEC3"
		},
		{
			"bufferView":2,
			"componentType":5126,
			"count":56,
			"type":"VEC2"
		},
		{
			"bufferView":3,
			"componentType":5123,
			"count":144,
			"type":"SCALAR"
		},
		{
			"bufferView":4,
			"componentType":5126,
			"count":276,
			"max":[
				0.9127767086029053,
				2.305511474609375,
				0.054999999701976776
			],
			"min":[
				-0.8515844345092773,
				-0.003661859082058072,
				-0.5799999833106995
			],
			"type":"VEC3"
		},
		{
			"bufferView":5,
			"componentType":5126,
			"count":276,
			"type":"VEC3"
		},
		{
			"bufferView":6,
			"componentType":5126,
			"count":276,
			"type":"VEC2"
		},
		{
			"bufferView":7,
			"componentType":5123,
			"count":744,
			"type":"SCALAR"
		},
		{
			"bufferView":8,
			"componentType":5126,
			"count":192,
			"max":[
				0.9127767086029053,
				2.305511474609375,
				0.054999999701976776
			],
			"min":[
				-0.8515844345092773,
				0.7645111680030823,
				0.004999998956918716
			],
			"type":"VEC3"
		},
		{
			"bufferView":9,
			"componentType":5126,
			"count":192,
			"type":"VEC3"
		},
		{
			"bufferView":10,
			"componentType":5126,
			"count":192,
			"type":"VEC2"
		},
		{
			"bufferView":11,
			"componentType":5123,
			"count":564,
			"type":"SCALAR"
		}
	],
	"bufferViews":[
		{
			"buffer":0,
			"byteLength":672,
			"byteOffset":0,
			"target":34962
		},
		{
			"buffer":0,
			"byteLength":672,
			"byteOffset":672,
			"target":34962
		},
		{
			"buffer":0,
			"byteLength":448,
			"byteOffset":1344,
			"target":34962
		},
		{
			"buffer":0,
			"byteLength":288,
			"byteOffset":1792,
			"target":34963
		},
		{
			"buffer":0,
			"byteLength":3312,
			"byteOffset":2080,
			"target":34962
		},
		{
			"buffer":0,
			"byteLength":3312,
			"byteOffset":5392,
			"target":34962
		},
		{
			"buffer":0,
			"byteLength":2208,
			"byteOffset":8704,
			"target":34962
		},
		{
			"buffer":0,
			"byteLength":1488,
			"byteOffset":10912,
			"target":34963
		},
		{
			"buffer":0,
			"byteLength":2304,
			"byteOffset":12400,
			"target":34962
		},
		{
			"buffer":0,
			"byteLength":2304,
			"byteOffset":14704,
			"target":34962
		},
		{
			"buffer":0,
			"byteLength":1536,
			"byteOffset":17008,
			"target":34962
		},
		{
			"buffer":0,
			"byteLength":1128,
			"byteOffset":18544,
			"target":34963
		}
	],
	"samplers":[
		{
			"magFilter":9729,
			"minFilter":9987
		}
	],
	"buffers":[
		{
			"byteLength":19672,
			"uri":"tree_cutout_01.bin"
		}
	]
}
