{
	"asset":{
		"generator":"Khronos glTF Blender I/O v4.2.57",
		"version":"2.0"
	},
	"extensionsUsed":[
		"KHR_materials_specular",
		"KHR_materials_sheen"
	],
	"scene":0,
	"scenes":[
		{
			"name":"Scene",
			"nodes":[
				0
			]
		}
	],
	"nodes":[
		{
			"extras":{
				"file_name":"tree_round_small_01",
				"collider":"BOX",
				"collider_center":[
					0.0,
					0.0,
					0.25
				],
				"collider_size":[
					0.2,
					0.2,
					0.5
				],
				"craftkit_category":"tree"
			},
			"mesh":0,
			"name":"tree_round_small_01"
		}
	],
	"materials":[
		{
			"doubleSided":true,
			"extensions":{
				"KHR_materials_specular":{
					"specularFactor":0.6000000238418579
				}
			},
			"name":"M_kraft",
			"pbrMetallicRoughness":{
				"baseColorTexture":{
					"index":0
				},
				"metallicFactor":0,
				"roughnessFactor":0.8999999761581421
			}
		},
		{
			"doubleSided":true,
			"extensions":{
				"KHR_materials_specular":{
					"specularFactor":0.6000000238418579
				},
				"KHR_materials_sheen":{
					"sheenColorFactor":[
						1.0,
						1.0,
						1.0
					],
					"sheenRoughnessFactor":0.6000000238418579
				}
			},
			"name":"M_felt_leaf",
			"pbrMetallicRoughness":{
				"baseColorTexture":{
					"index":1
				},
				"metallicFactor":0
			}
		},
		{
			"doubleSided":true,
			"extensions":{
				"KHR_materials_specular":{
					"specularFactor":0.6000000238418579
				}
			},
			"name":"M_kraft_edge",
			"pbrMetallicRoughness":{
				"baseColorTexture":{
					"index":2
				},
				"metallicFactor":0,
				"roughnessFactor":0.949999988079071
			}
		},
		{
			"doubleSided":true,
			"extensions":{
				"KHR_materials_specular":{
					"specularFactor":0.6000000238418579
				},
				"KHR_materials_sheen":{
					"sheenColorFactor":[
						1.0,
						1.0,
						1.0
					],
					"sheenRoughnessFactor":0.6000000238418579
				}
			},
			"name":"M_felt_grass",
			"pbrMetallicRoughness":{
				"baseColorTexture":{
					"index":3
				},
				"metallicFactor":0
			}
		}
	],
	"meshes":[
		{
			"name":"tree_round_small_01",
			"primitives":[
				{
					"attributes":{
						"POSITION":0,
						"NORMAL":1,
						"TEXCOORD_0":2
					},
					"indices":3,
					"material":0
				},
				{
					"attributes":{
						"POSITION":4,
						"NORMAL":5,
						"TEXCOORD_0":6
					},
					"indices":7,
					"material":1
				},
				{
					"attributes":{
						"POSITION":8,
						"NORMAL":9,
						"TEXCOORD_0":10
					},
					"indices":11,
					"material":2
				},
				{
					"attributes":{
						"POSITION":12,
						"NORMAL":13,
						"TEXCOORD_0":14
					},
					"indices":15,
					"material":3
				}
			]
		}
	],
	"textures":[
		{
			"sampler":0,
			"source":0
		},
		{
			"sampler":0,
			"source":1
		},
		{
			"sampler":0,
			"source":2
		},
		{
			"sampler":0,
			"source":3
		}
	],
	"images":[
		{
			"mimeType":"image/png",
			"name":"kraft.png",
			"uri":"../textures/kraft.png"
		},
		{
			"mimeType":"image/png",
			"name":"felt_leaf.png",
			"uri":"../textures/felt_leaf.png"
		},
		{
			"mimeType":"image/png",
			"name":"kraft_edge.png",
			"uri":"../textures/kraft_edge.png"
		},
		{
			"mimeType":"image/png",
			"name":"felt_grass.png",
			"uri":"../textures/felt_grass.png"
		}
	],
	"accessors":[
		{
			"bufferView":0,
			"componentType":5126,
			"count":56,
			"max":[
				0.07000000029802322,
				0.5,
				0.07000000029802322
			],
			"min":[
				-0.07000000029802322,
				0,
				-0.07000000029802322
			],
			"type":"VEC3"
		},
		{
			"bufferView":1,
			"componentType":5126,
			"count":56,
			"type":"VEC3"
		},
		{
			"bufferView":2,
			"componentType":5126,
			"count":56,
			"type":"VEC2"
		},
		{
			"bufferView":3,
			"componentType":5123,
			"count":132,
			"type":"SCALAR"
		},
		{
			"bufferView":4,
			"componentType":5126,
			"count":144,
			"max":[
				0.4266682267189026,
				1.2410649061203003,
				0.014999999664723873
			],
			"min":[
				-0.4230363368988037,
				0.373330295085907,
				-0.014999999664723873
			],
			"type":"VEC3"
		},
		{
			"bufferView":5,
			"componentType":5126,
			"count":144,
			"type":"VEC3"
		},
		{
			"bufferView":6,
			"componentType":5126,
			"count":144,
			"type":"VEC2"
		},
		{
			"bufferView":7,
			"componentType":5123,
			"count":420,
			"type":"SCALAR"
		},
		{
			"bufferView":8,
			"componentType":5126,
			"count":294,
			"max":[
				0.4266682267189026,
				1.2547993659973145,
				0.42518845200538635
			],
			"min":[
				-0.4230363368988037,
				0.373330295085907,
				-0.4388624131679535
			],
			"type":"VEC3"
		},
		{
			"bufferView":9,
			"componentType":5126,
			"count":294,
			"type":"VEC3"
		},
		{
			"bufferView":10,
			"componentType":5126,
			"count":294,
			"type":"VEC2"
		},
		{
			"bufferView":11,
			"componentType":5123,
			"count":864,
			"type":"SCALAR"
		},
		{
			"bufferView":12,
			"componentType":5126,
			"count":144,
			"max":[
				0.014999999664723873,
				1.2547993659973145,
				0.42518845200538635
			],
			"min":[
				-0.014999999664723873,
				0.3821975290775299,
				-0.4388624131679535
			],
			"type":"VEC3"
		},
		{
			"bufferView":13,
			"componentType":5126,
			"count":144,
			"type":"VEC3"
		},
		{
			"bufferView":14,
			"componentType":5126,
			"count":144,
			"type":"VEC2"
		},
		{
			"bufferView":15,
			"componentType":5123,
			"count":420,
			"type":"SCALAR"
		}
	],
	"bufferViews":[
		{
			"buffer":0,
			"byteLength":672,
			"byteOffset":0,
			"target":34962
		},
		{
			"buffer":0,
			"byteLength":672,
			"byteOffset":672,
			"target":34962
		},
		{
			"buffer":0,
			"byteLength":448,
			"byteOffset":1344,
			"target":34962
		},
		{
			"buffer":0,
			"byteLength":264,
			"byteOffset":1792,
			"target":34963
		},
		{
			"buffer":0,
			"byteLength":1728,
			"byteOffset":2056,
			"target":34962
		},
		{
			"buffer":0,
			"byteLength":1728,
			"byteOffset":3784,
			"target":34962
		},
		{
			"buffer":0,
			"byteLength":1152,
			"byteOffset":5512,
			"target":34962
		},
		{
			"buffer":0,
			"byteLength":840,
			"byteOffset":6664,
			"target":34963
		},
		{
			"buffer":0,
			"byteLength":3528,
			"byteOffset":7504,
			"target":34962
		},
		{
			"buffer":0,
			"byteLength":3528,
			"byteOffset":11032,
			"target":34962
		},
		{
			"buffer":0,
			"byteLength":2352,
			"byteOffset":14560,
			"target":34962
		},
		{
			"buffer":0,
			"byteLength":1728,
			"byteOffset":16912,
			"target":34963
		},
		{
			"buffer":0,
			"byteLength":1728,
			"byteOffset":18640,
			"target":34962
		},
		{
			"buffer":0,
			"byteLength":1728,
			"byteOffset":20368,
			"target":34962
		},
		{
			"buffer":0,
			"byteLength":1152,
			"byteOffset":22096,
			"target":34962
		},
		{
			"buffer":0,
			"byteLength":840,
			"byteOffset":23248,
			"target":34963
		}
	],
	"samplers":[
		{
			"magFilter":9729,
			"minFilter":9987
		}
	],
	"buffers":[
		{
			"byteLength":24088,
			"uri":"tree_round_small_01.bin"
		}
	]
}
