{
	"asset":{
		"generator":"Khronos glTF Blender I/O v4.4.56",
		"version":"2.0"
	},
	"scene":0,
	"scenes":[
		{
			"name":"Scene",
			"nodes":[
				25
			]
		}
	],
	"nodes":[
		{
			"name":"Head",
			"scale":[
				0.9999999403953552,
				0.9999999403953552,
				0.9999999403953552
			],
			"translation":[
				0,
				0.6620475053787231,
				0
			]
		},
		{
			"name":"LowerArm.L",
			"rotation":[
				-5.322121410245018e-09,
				-1.217327394442691e-08,
				-0.041447971016168594,
				0.9991406798362732
			],
			"scale":[
				1,
				1,
				0.9999999403953552
			],
			"translation":[
				-2.2351745343485163e-08,
				0.946472704410553,
				1.687538997430238e-14
			]
		},
		{
			"children":[
				1
			],
			"name":"UpperArm.L",
			"rotation":[
				-7.44547890008107e-08,
				4.1650739746046384e-08,
				-0.4566684663295746,
				0.8896369934082031
			],
			"scale":[
				0.9999999403953552,
				0.9999999403953552,
				0.9999999403953552
			],
			"translation":[
				0,
				0.8805009722709656,
				0
			]
		},
		{
			"children":[
				2
			],
			"name":"Shoulder.L",
			"rotation":[
				-2.6692541510442425e-08,
				-2.6692541510442425e-08,
				-0.7071067690849304,
				0.7071067690849304
			],
			"scale":[
				0.9999999403953552,
				0.9999999403953552,
				0.9999999403953552
			],
			"translation":[
				0,
				0.6620475053787231,
				0
			]
		},
		{
			"name":"LowerArm.R",
			"rotation":[
				-5.322121410245018e-09,
				1.217327394442691e-08,
				0.041447971016168594,
				0.9991406798362732
			],
			"scale":[
				1,
				1,
				0.9999999403953552
			],
			"translation":[
				2.2351745343485163e-08,
				0.946472704410553,
				1.687538997430238e-14
			]
		},
		{
			"children":[
				4
			],
			"name":"UpperArm.R",
			"rotation":[
				-7.44547890008107e-08,
				-4.1650739746046384e-08,
				0.4566684663295746,
				0.8896369934082031
			],
			"scale":[
				0.9999999403953552,
				0.9999999403953552,
				0.9999999403953552
			],
			"translation":[
				0,
				0.8805009722709656,
				0
			]
		},
		{
			"children":[
				5
			],
			"name":"Shoulder.R",
			"rotation":[
				-2.6692541510442425e-08,
				2.6692541510442425e-08,
				0.7071067690849304,
				0.7071067690849304
			],
			"scale":[
				0.9999999403953552,
				0.9999999403953552,
				0.9999999403953552
			],
			"translation":[
				0,
				0.6620475053787231,
				0
			]
		},
		{
			"children":[
				0,
				3,
				6
			],
			"name":"Chest",
			"scale":[
				0.9999999403953552,
				0.9999999403953552,
				0.9999999403953552
			],
			"translation":[
				0,
				1,
				0
			]
		},
		{
			"children":[
				7
			],
			"name":"Root",
			"scale":[
				0.9999999403953552,
				0.9999999403953552,
				0.9999999403953552
			],
			"translation":[
				0,
				5.960464477539063e-08,
				0
			]
		},
		{
			"name":"LowerLeg.L",
			"rotation":[
				-0.0006991906557232141,
				9.444838866556893e-08,
				-2.106370806942426e-11,
				0.9999997615814209
			],
			"scale":[
				1,
				0.9999999403953552,
				0.9999999403953552
			],
			"translation":[
				2.1316282072803006e-14,
				0.6364946961402893,
				-7.450591255064865e-09
			]
		},
		{
			"children":[
				9
			],
			"name":"UpperLeg.L",
			"rotation":[
				-0.598661482334137,
				-4.359023808575557e-09,
				3.7755686577156666e-08,
				0.8010021448135376
			],
			"scale":[
				1,
				1.0000001192092896,
				1
			],
			"translation":[
				-5.329070518200751e-15,
				0.4231286942958832,
				-4.470348358154297e-08
			]
		},
		{
			"children":[
				10
			],
			"name":"Hip.L",
			"rotation":[
				-0.5531495213508606,
				-0.440483421087265,
				-0.5531495213508606,
				0.440483421087265
			],
			"scale":[
				1.0000001192092896,
				1,
				0.9999999403953552
			],
			"translation":[
				0,
				5.960464477539063e-08,
				0
			]
		},
		{
			"name":"LowerLeg.R",
			"rotation":[
				-0.0006991906557232141,
				-9.444838866556893e-08,
				2.106370806942426e-11,
				0.9999997615814209
			],
			"scale":[
				1,
				0.9999999403953552,
				0.9999999403953552
			],
			"translation":[
				-2.1316282072803006e-14,
				0.6364946961402893,
				-7.450591255064865e-09
			]
		},
		{
			"children":[
				12
			],
			"name":"UpperLeg.R",
			"rotation":[
				-0.598661482334137,
				4.359023808575557e-09,
				-3.7755686577156666e-08,
				0.8010021448135376
			],
			"scale":[
				1,
				1.0000001192092896,
				1
			],
			"translation":[
				5.329070518200751e-15,
				0.4231286942958832,
				-4.470348358154297e-08
			]
		},
		{
			"children":[
				13
			],
			"name":"Hip.R",
			"rotation":[
				-0.5531495213508606,
				0.440483421087265,
				0.5531495213508606,
				0.440483421087265
			],
			"scale":[
				1.0000001192092896,
				1,
				0.9999999403953552
			],
			"translation":[
				0,
				5.960464477539063e-08,
				0
			]
		},
		{
			"mesh":0,
			"name":"\u7acb\u65b9\u4f53",
			"skin":0
		},
		{
			"mesh":1,
			"name":"\u7acb\u65b9\u4f53.001",
			"skin":0
		},
		{
			"mesh":2,
			"name":"\u7acb\u65b9\u4f53.002",
			"skin":0
		},
		{
			"mesh":3,
			"name":"\u7acb\u65b9\u4f53.003",
			"skin":0
		},
		{
			"mesh":4,
			"name":"\u7acb\u65b9\u4f53.004",
			"skin":0
		},
		{
			"mesh":5,
			"name":"\u7acb\u65b9\u4f53.005",
			"skin":0
		},
		{
			"mesh":6,
			"name":"\u7acb\u65b9\u4f53.006",
			"skin":0
		},
		{
			"mesh":7,
			"name":"\u7acb\u65b9\u4f53.007",
			"skin":0
		},
		{
			"mesh":8,
			"name":"\u7acb\u65b9\u4f53.008",
			"skin":0
		},
		{
			"mesh":9,
			"name":"\u7acb\u65b9\u4f53.009",
			"skin":0
		},
		{
			"children":[
				15,
				16,
				17,
				18,
				19,
				20,
				21,
				22,
				23,
				24,
				8,
				11,
				14
			],
			"name":"\u30a2\u30fc\u30de\u30c1\u30e5\u30a2",
			"scale":[
				0.44957342743873596,
				0.44957342743873596,
				0.44957342743873596
			],
			"translation":[
				0,
				-0.3750848174095154,
				0
			]
		}
	],
	"materials":[
		{
			"doubleSided":true,
			"name":"\u30de\u30c6\u30ea\u30a2\u30eb",
			"pbrMetallicRoughness":{
				"baseColorTexture":{
					"index":0
				},
				"metallicFactor":0,
				"roughnessFactor":0.5
			}
		}
	],
	"meshes":[
		{
			"name":"\u7acb\u65b9\u4f53",
			"primitives":[
				{
					"attributes":{
						"POSITION":0,
						"NORMAL":1,
						"TEXCOORD_0":2,
						"JOINTS_0":3,
						"WEIGHTS_0":4
					},
					"indices":5,
					"material":0
				}
			]
		},
		{
			"name":"\u7acb\u65b9\u4f53.001",
			"primitives":[
				{
					"attributes":{
						"POSITION":7,
						"NORMAL":8,
						"TEXCOORD_0":9,
						"JOINTS_0":10,
						"WEIGHTS_0":11
					},
					"indices":5,
					"material":0
				}
			]
		},
		{
			"name":"\u7acb\u65b9\u4f53.002",
			"primitives":[
				{
					"attributes":{
						"POSITION":12,
						"NORMAL":13,
						"TEXCOORD_0":14,
						"JOINTS_0":15,
						"WEIGHTS_0":16
					},
					"indices":17,
					"material":0
				}
			]
		},
		{
			"name":"\u7acb\u65b9\u4f53.003",
			"primitives":[
				{
					"attributes":{
						"POSITION":18,
						"NORMAL":19,
						"TEXCOORD_0":20,
						"JOINTS_0":21,
						"WEIGHTS_0":22
					},
					"indices":23,
					"material":0
				}
			]
		},
		{
			"name":"\u7acb\u65b9\u4f53.004",
			"primitives":[
				{
					"attributes":{
						"POSITION":24,
						"NORMAL":25,
						"TEXCOORD_0":26,
						"JOINTS_0":27,
						"WEIGHTS_0":28
					},
					"indices":23,
					"material":0
				}
			]
		},
		{
			"name":"\u7acb\u65b9\u4f53.005",
			"primitives":[
				{
					"attributes":{
						"POSITION":29,
						"NORMAL":30,
						"TEXCOORD_0":31,
						"JOINTS_0":32,
						"WEIGHTS_0":33
					},
					"indices":17,
					"material":0
				}
			]
		},
		{
			"name":"\u7acb\u65b9\u4f53.006",
			"primitives":[
				{
					"attributes":{
						"POSITION":34,
						"NORMAL":35,
						"TEXCOORD_0":36,
						"JOINTS_0":37,
						"WEIGHTS_0":38
					},
					"indices":17,
					"material":0
				}
			]
		},
		{
			"name":"\u7acb\u65b9\u4f53.007",
			"primitives":[
				{
					"attributes":{
						"POSITION":39,
						"NORMAL":40,
						"TEXCOORD_0":41,
						"JOINTS_0":42,
						"WEIGHTS_0":43
					},
					"indices":17,
					"material":0
				}
			]
		},
		{
			"name":"\u7acb\u65b9\u4f53.008",
			"primitives":[
				{
					"attributes":{
						"POSITION":44,
						"NORMAL":45,
						"TEXCOORD_0":46,
						"JOINTS_0":47,
						"WEIGHTS_0":48
					},
					"indices":23,
					"material":0
				}
			]
		},
		{
			"name":"\u7acb\u65b9\u4f53.009",
			"primitives":[
				{
					"attributes":{
						"POSITION":49,
						"NORMAL":50,
						"TEXCOORD_0":51,
						"JOINTS_0":52,
						"WEIGHTS_0":53
					},
					"indices":23,
					"material":0
				}
			]
		}
	],
	"textures":[
		{
			"sampler":0,
			"source":0
		}
	],
	"images":[
		{
			"mimeType":"image/png",
			"name":"player",
			"uri":"player.png"
		}
	],
	"skins":[
		{
			"inverseBindMatrices":6,
			"joints":[
				8,
				7,
				0,
				3,
				2,
				1,
				6,
				5,
				4,
				11,
				10,
				9,
				14,
				13,
				12
			],
			"name":"\u30a2\u30fc\u30de\u30c1\u30e5\u30a2"
		}
	],
	"accessors":[
		{
			"bufferView":0,
			"componentType":5126,
			"count":24,
			"max":[
				0.5959340333938599,
				1.3875882625579834,
				0.46350425481796265
			],
			"min":[
				-0.5959340333938599,
				0.4605797529220581,
				-0.46350425481796265
			],
			"type":"VEC3"
		},
		{
			"bufferView":1,
			"componentType":5126,
			"count":24,
			"type":"VEC3"
		},
		{
			"bufferView":2,
			"componentType":5126,
			"count":24,
			"type":"VEC2"
		},
		{
			"bufferView":3,
			"componentType":5121,
			"count":24,
			"type":"VEC4"
		},
		{
			"bufferView":4,
			"componentType":5126,
			"count":24,
			"type":"VEC4"
		},
		{
			"bufferView":5,
			"componentType":5123,
			"count":36,
			"type":"SCALAR"
		},
		{
			"bufferView":6,
			"componentType":5126,
			"count":15,
			"type":"MAT4"
		},
		{
			"bufferView":7,
			"componentType":5126,
			"count":24,
			"max":[
				0.3972893953323364,
				0.47690948843955994,
				0.2648595869541168
			],
			"min":[
				-0.3972893953323364,
				-0.45009902119636536,
				-0.2648595869541168
			],
			"type":"VEC3"
		},
		{
			"bufferView":8,
			"componentType":5126,
			"count":24,
			"type":"VEC3"
		},
		{
			"bufferView":9,
			"componentType":5126,
			"count":24,
			"type":"VEC2"
		},
		{
			"bufferView":10,
			"componentType":5121,
			"count":24,
			"type":"VEC4"
		},
		{
			"bufferView":11,
			"componentType":5126,
			"count":24,
			"type":"VEC4"
		},
		{
			"bufferView":12,
			"componentType":5126,
			"count":24,
			"max":[
				0.7521247267723083,
				0.4234042763710022,
				0.11918681859970093
			],
			"min":[
				0.347042441368103,
				-0.03984525427222252,
				-0.11918681859970093
			],
			"type":"VEC3"
		},
		{
			"bufferView":13,
			"componentType":5126,
			"count":24,
			"type":"VEC3"
		},
		{
			"bufferView":14,
			"componentType":5126,
			"count":24,
			"type":"VEC2"
		},
		{
			"bufferView":15,
			"componentType":5121,
			"count":24,
			"type":"VEC4"
		},
		{
			"bufferView":16,
			"componentType":5126,
			"count":24,
			"type":"VEC4"
		},
		{
			"bufferView":17,
			"componentType":5123,
			"count":36,
			"type":"SCALAR"
		},
		{
			"bufferView":18,
			"componentType":5126,
			"count":24,
			"max":[
				-0.5655515789985657,
				0.0459793359041214,
				0.11918681859970093
			],
			"min":[
				-0.9706339240074158,
				-0.4172701835632324,
				-0.11918681859970093
			],
			"type":"VEC3"
		},
		{
			"bufferView":19,
			"componentType":5126,
			"count":24,
			"type":"VEC3"
		},
		{
			"bufferView":20,
			"componentType":5126,
			"count":24,
			"type":"VEC2"
		},
		{
			"bufferView":21,
			"componentType":5121,
			"count":24,
			"type":"VEC4"
		},
		{
			"bufferView":22,
			"componentType":5126,
			"count":24,
			"type":"VEC4"
		},
		{
			"bufferView":23,
			"componentType":5123,
			"count":36,
			"type":"SCALAR"
		},
		{
			"bufferView":24,
			"componentType":5126,
			"count":24,
			"max":[
				-0.347042441368103,
				0.4234042763710022,
				0.11918681859970093
			],
			"min":[
				-0.7521247267723083,
				-0.03984525427222252,
				-0.11918681859970093
			],
			"type":"VEC3"
		},
		{
			"bufferView":25,
			"componentType":5126,
			"count":24,
			"type":"VEC3"
		},
		{
			"bufferView":26,
			"componentType":5126,
			"count":24,
			"type":"VEC2"
		},
		{
			"bufferView":27,
			"componentType":5121,
			"count":24,
			"type":"VEC4"
		},
		{
			"bufferView":28,
			"componentType":5126,
			"count":24,
			"type":"VEC4"
		},
		{
			"bufferView":29,
			"componentType":5126,
			"count":24,
			"max":[
				0.9706339240074158,
				0.0459793359041214,
				0.11918681859970093
			],
			"min":[
				0.5655515789985657,
				-0.4172701835632324,
				-0.11918681859970093
			],
			"type":"VEC3"
		},
		{
			"bufferView":30,
			"componentType":5126,
			"count":24,
			"type":"VEC3"
		},
		{
			"bufferView":31,
			"componentType":5126,
			"count":24,
			"type":"VEC2"
		},
		{
			"bufferView":32,
			"componentType":5121,
			"count":24,
			"type":"VEC4"
		},
		{
			"bufferView":33,
			"componentType":5126,
			"count":24,
			"type":"VEC4"
		},
		{
			"bufferView":34,
			"componentType":5126,
			"count":24,
			"max":[
				0.3040686845779419,
				-0.4653346538543701,
				0.0993223488330841
			],
			"min":[
				0.09322071820497513,
				-0.7137778401374817,
				-0.0993223488330841
			],
			"type":"VEC3"
		},
		{
			"bufferView":35,
			"componentType":5126,
			"count":24,
			"type":"VEC3"
		},
		{
			"bufferView":36,
			"componentType":5126,
			"count":24,
			"type":"VEC2"
		},
		{
			"bufferView":37,
			"componentType":5121,
			"count":24,
			"type":"VEC4"
		},
		{
			"bufferView":38,
			"componentType":5126,
			"count":24,
			"type":"VEC4"
		},
		{
			"bufferView":39,
			"componentType":5126,
			"count":24,
			"max":[
				0.3173116445541382,
				-0.7368157505989075,
				0.0993223488330841
			],
			"min":[
				0.10646367818117142,
				-0.985258936882019,
				-0.0993223488330841
			],
			"type":"VEC3"
		},
		{
			"bufferView":40,
			"componentType":5126,
			"count":24,
			"type":"VEC3"
		},
		{
			"bufferView":41,
			"componentType":5126,
			"count":24,
			"type":"VEC2"
		},
		{
			"bufferView":42,
			"componentType":5121,
			"count":24,
			"type":"VEC4"
		},
		{
			"bufferView":43,
			"componentType":5126,
			"count":24,
			"type":"VEC4"
		},
		{
			"bufferView":44,
			"componentType":5126,
			"count":24,
			"max":[
				-0.09322071820497513,
				-0.4653346538543701,
				0.0993223488330841
			],
			"min":[
				-0.3040686845779419,
				-0.7137778401374817,
				-0.0993223488330841
			],
			"type":"VEC3"
		},
		{
			"bufferView":45,
			"componentType":5126,
			"count":24,
			"type":"VEC3"
		},
		{
			"bufferView":46,
			"componentType":5126,
			"count":24,
			"type":"VEC2"
		},
		{
			"bufferView":47,
			"componentType":5121,
			"count":24,
			"type":"VEC4"
		},
		{
			"bufferView":48,
			"componentType":5126,
			"count":24,
			"type":"VEC4"
		},
		{
			"bufferView":49,
			"componentType":5126,
			"count":24,
			"max":[
				-0.10646367818117142,
				-0.7368157505989075,
				0.0993223488330841
			],
			"min":[
				-0.3173116445541382,
				-0.985258936882019,
				-0.0993223488330841
			],
			"type":"VEC3"
		},
		{
			"bufferView":50,
			"componentType":5126,
			"count":24,
			"type":"VEC3"
		},
		{
			"bufferView":51,
			"componentType":5126,
			"count":24,
			"type":"VEC2"
		},
		{
			"bufferView":52,
			"componentType":5121,
			"count":24,
			"type":"VEC4"
		},
		{
			"bufferView":53,
			"componentType":5126,
			"count":24,
			"type":"VEC4"
		}
	],
	"bufferViews":[
		{
			"buffer":0,
			"byteLength":288,
			"byteOffset":0,
			"target":34962
		},
		{
			"buffer":0,
			"byteLength":288,
			"byteOffset":288,
			"target":34962
		},
		{
			"buffer":0,
			"byteLength":192,
			"byteOffset":576,
			"target":34962
		},
		{
			"buffer":0,
			"byteLength":96,
			"byteOffset":768,
			"target":34962
		},
		{
			"buffer":0,
			"byteLength":384,
			"byteOffset":864,
			"target":34962
		},
		{
			"buffer":0,
			"byteLength":72,
			"byteOffset":1248,
			"target":34963
		},
		{
			"buffer":0,
			"byteLength":960,
			"byteOffset":1320
		},
		{
			"buffer":0,
			"byteLength":288,
			"byteOffset":2280,
			"target":34962
		},
		{
			"buffer":0,
			"byteLength":288,
			"byteOffset":2568,
			"target":34962
		},
		{
			"buffer":0,
			"byteLength":192,
			"byteOffset":2856,
			"target":34962
		},
		{
			"buffer":0,
			"byteLength":96,
			"byteOffset":3048,
			"target":34962
		},
		{
			"buffer":0,
			"byteLength":384,
			"byteOffset":3144,
			"target":34962
		},
		{
			"buffer":0,
			"byteLength":288,
			"byteOffset":3528,
			"target":34962
		},
		{
			"buffer":0,
			"byteLength":288,
			"byteOffset":3816,
			"target":34962
		},
		{
			"buffer":0,
			"byteLength":192,
			"byteOffset":4104,
			"target":34962
		},
		{
			"buffer":0,
			"byteLength":96,
			"byteOffset":4296,
			"target":34962
		},
		{
			"buffer":0,
			"byteLength":384,
			"byteOffset":4392,
			"target":34962
		},
		{
			"buffer":0,
			"byteLength":72,
			"byteOffset":4776,
			"target":34963
		},
		{
			"buffer":0,
			"byteLength":288,
			"byteOffset":4848,
			"target":34962
		},
		{
			"buffer":0,
			"byteLength":288,
			"byteOffset":5136,
			"target":34962
		},
		{
			"buffer":0,
			"byteLength":192,
			"byteOffset":5424,
			"target":34962
		},
		{
			"buffer":0,
			"byteLength":96,
			"byteOffset":5616,
			"target":34962
		},
		{
			"buffer":0,
			"byteLength":384,
			"byteOffset":5712,
			"target":34962
		},
		{
			"buffer":0,
			"byteLength":72,
			"byteOffset":6096,
			"target":34963
		},
		{
			"buffer":0,
			"byteLength":288,
			"byteOffset":6168,
			"target":34962
		},
		{
			"buffer":0,
			"byteLength":288,
			"byteOffset":6456,
			"target":34962
		},
		{
			"buffer":0,
			"byteLength":192,
			"byteOffset":6744,
			"target":34962
		},
		{
			"buffer":0,
			"byteLength":96,
			"byteOffset":6936,
			"target":34962
		},
		{
			"buffer":0,
			"byteLength":384,
			"byteOffset":7032,
			"target":34962
		},
		{
			"buffer":0,
			"byteLength":288,
			"byteOffset":7416,
			"target":34962
		},
		{
			"buffer":0,
			"byteLength":288,
			"byteOffset":7704,
			"target":34962
		},
		{
			"buffer":0,
			"byteLength":192,
			"byteOffset":7992,
			"target":34962
		},
		{
			"buffer":0,
			"byteLength":96,
			"byteOffset":8184,
			"target":34962
		},
		{
			"buffer":0,
			"byteLength":384,
			"byteOffset":8280,
			"target":34962
		},
		{
			"buffer":0,
			"byteLength":288,
			"byteOffset":8664,
			"target":34962
		},
		{
			"buffer":0,
			"byteLength":288,
			"byteOffset":8952,
			"target":34962
		},
		{
			"buffer":0,
			"byteLength":192,
			"byteOffset":9240,
			"target":34962
		},
		{
			"buffer":0,
			"byteLength":96,
			"byteOffset":9432,
			"target":34962
		},
		{
			"buffer":0,
			"byteLength":384,
			"byteOffset":9528,
			"target":34962
		},
		{
			"buffer":0,
			"byteLength":288,
			"byteOffset":9912,
			"target":34962
		},
		{
			"buffer":0,
			"byteLength":288,
			"byteOffset":10200,
			"target":34962
		},
		{
			"buffer":0,
			"byteLength":192,
			"byteOffset":10488,
			"target":34962
		},
		{
			"buffer":0,
			"byteLength":96,
			"byteOffset":10680,
			"target":34962
		},
		{
			"buffer":0,
			"byteLength":384,
			"byteOffset":10776,
			"target":34962
		},
		{
			"buffer":0,
			"byteLength":288,
			"byteOffset":11160,
			"target":34962
		},
		{
			"buffer":0,
			"byteLength":288,
			"byteOffset":11448,
			"target":34962
		},
		{
			"buffer":0,
			"byteLength":192,
			"byteOffset":11736,
			"target":34962
		},
		{
			"buffer":0,
			"byteLength":96,
			"byteOffset":11928,
			"target":34962
		},
		{
			"buffer":0,
			"byteLength":384,
			"byteOffset":12024,
			"target":34962
		},
		{
			"buffer":0,
			"byteLength":288,
			"byteOffset":12408,
			"target":34962
		},
		{
			"buffer":0,
			"byteLength":288,
			"byteOffset":12696,
			"target":34962
		},
		{
			"buffer":0,
			"byteLength":192,
			"byteOffset":12984,
			"target":34962
		},
		{
			"buffer":0,
			"byteLength":96,
			"byteOffset":13176,
			"target":34962
		},
		{
			"buffer":0,
			"byteLength":384,
			"byteOffset":13272,
			"target":34962
		}
	],
	"samplers":[
		{
			"magFilter":9729,
			"minFilter":9987
		}
	],
	"buffers":[
		{
			"byteLength":13656,
			"uri":"player.bin"
		}
	]
}
