# Blender 4.4.1
# www.blender.org
mtllib claw.mtl
o 立方体
v -0.022638 0.028724 -0.079289
v -0.018125 0.022617 0.058478
v -0.022638 0.042451 -0.063204
v -0.018125 0.038194 0.058478
v -0.015319 0.028724 -0.079289
v -0.012578 0.022617 0.058478
v -0.015319 0.042451 -0.063204
v -0.012578 0.038194 0.058478
v -0.017564 0.033694 0.004543
v -0.017564 0.046378 0.004543
v -0.012243 0.046378 0.004543
v -0.012243 0.033694 0.004543
v -0.019395 0.054863 -0.037596
v -0.013353 0.054863 -0.037596
v -0.013353 0.043298 -0.037596
v -0.019395 0.043298 -0.037596
v -0.018994 0.029145 0.033053
v -0.018994 0.041829 0.033053
v -0.013110 0.041829 0.033053
v -0.013110 0.029145 0.033053
vn -0.9994 -0.0000 0.0342
vn -0.0000 0.9899 0.1415
vn 0.9998 -0.0000 -0.0209
vn -0.0000 -0.9686 -0.2487
vn -0.0000 0.7607 -0.6491
vn -0.0000 -0.0000 1.0000
vn -0.0000 -0.9750 -0.2222
vn 0.9997 -0.0000 -0.0263
vn -0.0000 0.9803 0.1974
vn -0.9991 -0.0000 0.0434
vn -0.9800 -0.1513 0.1291
vn -0.0000 0.8999 -0.4362
vn 0.9925 0.0929 -0.0793
vn -0.0000 -0.9440 0.3300
vn -0.0000 -0.9875 -0.1576
vn 0.9995 -0.0000 0.0304
vn -0.0000 0.9875 0.1576
vn -0.9987 -0.0000 -0.0501
vn -0.9921 -0.0000 0.1257
vn 0.9971 -0.0000 -0.0766
vt 0.562500 0.000000
vt 0.625000 0.250000
vt 0.562500 0.250000
vt 0.562500 0.500000
vt 0.625000 0.500000
vt 0.562500 0.750000
vt 0.625000 1.000000
vt 0.562500 1.000000
vt 0.375000 0.500000
vt 0.125000 0.750000
vt 0.125000 0.500000
vt 0.875000 0.500000
vt 0.625000 0.750000
vt 0.437500 0.750000
vt 0.500000 1.000000
vt 0.437500 1.000000
vt 0.500000 0.500000
vt 0.437500 0.500000
vt 0.500000 0.250000
vt 0.437500 0.250000
vt 0.437500 0.000000
vt 0.375000 0.250000
vt 0.375000 0.000000
vt 0.375000 0.750000
vt 0.375000 1.000000
vt 0.500000 0.750000
vt 0.500000 0.000000
vt 0.625000 0.000000
vt 0.875000 0.750000
s 0
usemtl マテリアル.001
f 17/1/1 4/2/1 18/3/1
f 4/2/2 19/4/2 18/3/2
f 8/5/3 20/6/3 19/4/3
f 20/6/4 2/7/4 17/8/4
f 7/9/5 1/10/5 3/11/5
f 4/12/6 6/13/6 8/5/6
f 15/14/7 9/15/7 16/16/7
f 11/17/8 15/14/8 14/18/8
f 10/19/9 14/18/9 13/20/9
f 16/21/10 10/19/10 13/20/10
f 16/21/11 3/22/11 1/23/11
f 13/20/12 7/9/12 3/22/12
f 7/9/13 15/14/13 5/24/13
f 5/24/14 16/16/14 1/25/14
f 20/6/15 9/15/15 12/26/15
f 19/4/16 12/26/16 11/17/16
f 10/19/17 19/4/17 11/17/17
f 9/27/18 18/3/18 10/19/18
f 17/1/1 2/28/1 4/2/1
f 4/2/2 8/5/2 19/4/2
f 8/5/3 6/13/3 20/6/3
f 20/6/4 6/13/4 2/7/4
f 7/9/5 5/24/5 1/10/5
f 4/12/6 2/29/6 6/13/6
f 15/14/7 12/26/7 9/15/7
f 11/17/8 12/26/8 15/14/8
f 10/19/9 11/17/9 14/18/9
f 16/21/10 9/27/10 10/19/10
f 16/21/19 13/20/19 3/22/19
f 13/20/12 14/18/12 7/9/12
f 7/9/20 14/18/20 15/14/20
f 5/24/14 15/14/14 16/16/14
f 20/6/15 17/8/15 9/15/15
f 19/4/16 20/6/16 12/26/16
f 10/19/17 18/3/17 19/4/17
f 9/27/18 17/1/18 18/3/18
o 立方体.001
v -0.004337 0.028724 -0.079289
v -0.003044 0.022617 0.058478
v -0.004337 0.042451 -0.063204
v -0.003044 0.038194 0.058478
v 0.002983 0.028724 -0.079289
v 0.001545 0.022617 0.058478
v 0.002983 0.042451 -0.063204
v 0.001545 0.038194 0.058478
v -0.003391 0.033694 0.004543
v -0.003391 0.046378 0.004543
v 0.001930 0.046378 0.004543
v 0.001930 0.033694 0.004543
v -0.003732 0.054863 -0.037596
v 0.002310 0.054863 -0.037596
v 0.002310 0.043298 -0.037596
v -0.003732 0.043298 -0.037596
v -0.003657 0.029145 0.033053
v -0.003657 0.041829 0.033053
v 0.002227 0.041829 0.033053
v 0.002227 0.029145 0.033053
vn -0.9997 -0.0000 0.0241
vn -0.0000 0.9899 0.1415
vn 0.9996 -0.0000 0.0268
vn -0.0000 -0.9686 -0.2487
vn -0.0000 0.7607 -0.6491
vn -0.0000 -0.0000 1.0000
vn -0.0000 -0.9750 -0.2222
vn 1.0000 -0.0000 0.0090
vn -0.0000 0.9803 0.1974
vn -1.0000 -0.0000 0.0081
vn -0.9996 -0.0153 0.0241
vn -0.0000 0.8999 -0.4362
vn 0.9995 -0.0171 0.0268
vn -0.0000 -0.9440 0.3300
vn -0.0000 -0.9875 -0.1576
vn 0.9999 -0.0000 -0.0104
vn -0.0000 0.9875 0.1576
vn -1.0000 -0.0000 -0.0093
vt 0.562500 0.000000
vt 0.625000 0.000000
vt 0.625000 0.250000
vt 0.562500 0.250000
vt 0.625000 0.500000
vt 0.562500 0.500000
vt 0.625000 0.750000
vt 0.562500 0.750000
vt 0.625000 1.000000
vt 0.562500 1.000000
vt 0.125000 0.500000
vt 0.375000 0.500000
vt 0.375000 0.750000
vt 0.125000 0.750000
vt 0.875000 0.500000
vt 0.875000 0.750000
vt 0.437500 0.750000
vt 0.500000 0.750000
vt 0.500000 1.000000
vt 0.437500 1.000000
vt 0.437500 0.500000
vt 0.500000 0.500000
vt 0.437500 0.250000
vt 0.500000 0.250000
vt 0.437500 0.000000
vt 0.500000 0.000000
vt 0.375000 0.000000
vt 0.375000 0.250000
vt 0.375000 1.000000
s 0
f 37/30/21 22/31/21 24/32/21 38/33/21
f 38/33/22 24/32/22 28/34/22 39/35/22
f 39/35/23 28/34/23 26/36/23 40/37/23
f 40/37/24 26/36/24 22/38/24 37/39/24
f 23/40/25 27/41/25 25/42/25 21/43/25
f 28/34/26 24/44/26 22/45/26 26/36/26
f 35/46/27 32/47/27 29/48/27 36/49/27
f 34/50/28 31/51/28 32/47/28 35/46/28
f 33/52/29 30/53/29 31/51/29 34/50/29
f 36/54/30 29/55/30 30/53/30 33/52/30
f 21/56/31 36/54/31 33/52/31 23/57/31
f 23/57/32 33/52/32 34/50/32 27/41/32
f 27/41/33 34/50/33 35/46/33 25/42/33
f 25/42/34 35/46/34 36/49/34 21/58/34
f 32/47/35 40/37/35 37/39/35 29/48/35
f 31/51/36 39/35/36 40/37/36 32/47/36
f 30/53/37 38/33/37 39/35/37 31/51/37
f 29/55/38 37/30/38 38/33/38 30/53/38
o 立方体.002
v 0.012867 0.028724 -0.079289
v 0.010199 0.022617 0.058478
v 0.012867 0.042451 -0.063204
v 0.010199 0.038194 0.058478
v 0.020186 0.028724 -0.079289
v 0.015745 0.022617 0.058478
v 0.020186 0.042451 -0.063204
v 0.015745 0.038194 0.058478
v 0.009844 0.033694 0.004543
v 0.009844 0.046378 0.004543
v 0.015165 0.046378 0.004543
v 0.015165 0.033694 0.004543
v 0.010935 0.054863 -0.037596
v 0.016977 0.054863 -0.037596
v 0.016977 0.043298 -0.037596
v 0.010935 0.043298 -0.037596
v 0.010696 0.029145 0.033053
v 0.010696 0.041829 0.033053
v 0.016580 0.041829 0.033053
v 0.016580 0.029145 0.033053
vn -0.9998 -0.0000 -0.0196
vn -0.0000 0.9899 0.1415
vn 0.9995 -0.0000 0.0328
vn -0.0000 -0.9686 -0.2487
vn -0.0000 0.7607 -0.6491
vn -0.0000 -0.0000 1.0000
vn -0.0000 -0.9750 -0.2222
vn 0.9991 -0.0000 0.0430
vn -0.0000 0.9803 0.1974
vn -0.9997 -0.0000 -0.0259
vn -0.9959 0.0488 -0.0767
vn -0.0000 0.8999 -0.4362
vn 0.9887 -0.0805 0.1266
vn -0.0000 -0.9440 0.3300
vn -0.0000 -0.9875 -0.1576
vn 0.9988 -0.0000 -0.0496
vn -0.0000 0.9875 0.1576
vn -0.9996 -0.0000 0.0299
vt 0.562500 0.000000
vt 0.625000 0.000000
vt 0.625000 0.250000
vt 0.562500 0.250000
vt 0.625000 0.500000
vt 0.562500 0.500000
vt 0.625000 0.750000
vt 0.562500 0.750000
vt 0.625000 1.000000
vt 0.562500 1.000000
vt 0.125000 0.500000
vt 0.375000 0.500000
vt 0.375000 0.750000
vt 0.125000 0.750000
vt 0.875000 0.500000
vt 0.875000 0.750000
vt 0.437500 0.750000
vt 0.500000 0.750000
vt 0.500000 1.000000
vt 0.437500 1.000000
vt 0.437500 0.500000
vt 0.500000 0.500000
vt 0.437500 0.250000
vt 0.500000 0.250000
vt 0.437500 0.000000
vt 0.500000 0.000000
vt 0.375000 0.000000
vt 0.375000 0.250000
vt 0.375000 1.000000
s 0
f 57/59/39 42/60/39 44/61/39 58/62/39
f 58/62/40 44/61/40 48/63/40 59/64/40
f 59/64/41 48/63/41 46/65/41 60/66/41
f 60/66/42 46/65/42 42/67/42 57/68/42
f 43/69/43 47/70/43 45/71/43 41/72/43
f 48/63/44 44/73/44 42/74/44 46/65/44
f 55/75/45 52/76/45 49/77/45 56/78/45
f 54/79/46 51/80/46 52/76/46 55/75/46
f 53/81/47 50/82/47 51/80/47 54/79/47
f 56/83/48 49/84/48 50/82/48 53/81/48
f 41/85/49 56/83/49 53/81/49 43/86/49
f 43/86/50 53/81/50 54/79/50 47/70/50
f 47/70/51 54/79/51 55/75/51 45/71/51
f 45/71/52 55/75/52 56/78/52 41/87/52
f 52/76/53 60/66/53 57/68/53 49/77/53
f 51/80/54 59/64/54 60/66/54 52/76/54
f 50/82/55 58/62/55 59/64/55 51/80/55
f 49/84/56 57/59/56 58/62/56 50/82/56
