# Blender 4.4.1
# www.blender.org
mtllib Fist.mtl
o 立方体
v -1.088178 -0.036412 1.000000
v -1.088178 1.846711 1.000000
v 1.088178 -0.036412 1.000000
v 1.088178 1.846711 1.000000
v -0.989686 0.012199 0.019343
v -0.989686 1.798100 0.019343
v 0.989686 0.012199 0.019343
v 0.989686 1.798100 0.019343
v -0.455075 0.521983 -1.685626
v -0.813901 0.190394 -0.838723
v -0.455075 1.288316 -1.685626
v -0.813901 1.619904 -0.838723
v 0.455075 0.521983 -1.685626
v 0.813901 0.190394 -0.838723
v 0.813901 1.619904 -0.838723
v 0.455075 1.288316 -1.685626
v -1.022879 0.487165 1.528643
v -1.022879 1.820296 1.528643
v -1.022879 0.487165 0.966071
v -1.022879 1.820296 0.966071
v -0.662988 0.487165 1.528643
v -0.662988 1.820296 1.528643
v -0.662988 0.487165 0.966071
v -0.662988 1.820296 0.966071
v -0.447025 0.487165 1.528643
v -0.447025 1.820296 1.528643
v -0.447025 0.487165 0.966071
v -0.447025 1.820296 0.966071
v -0.035471 0.487165 1.528643
v -0.035471 1.820296 1.528643
v -0.035471 0.487165 0.966071
v -0.035471 1.820296 0.966071
v 0.113204 0.487165 1.528643
v 0.113204 1.820296 1.528643
v 0.113204 0.487165 0.966071
v 0.113204 1.820296 0.966071
v 0.524758 0.487165 1.528643
v 0.524758 1.820296 1.528643
v 0.524758 0.487165 0.966071
v 0.524758 1.820296 0.966071
v 0.613741 0.487165 1.528643
v 0.613741 1.820296 1.528643
v 0.613741 0.487165 0.966071
v 0.613741 1.820296 0.966071
v 1.025294 0.487165 1.528643
v 1.025294 1.820296 1.528643
v 1.025294 0.487165 0.966071
v 1.025294 1.820296 0.966071
v -0.080389 0.376301 1.528643
v 0.950544 0.376301 1.528643
v -0.080389 0.376301 0.966071
v 0.950544 0.376301 0.966071
v -0.080389 -0.035253 1.528643
v 0.950544 -0.035253 1.528643
v -0.080389 -0.035253 0.966071
v 0.950544 -0.035253 0.966071
vn -0.0000 0.9791 -0.2033
vn -0.0000 -0.9791 -0.2033
vn 0.9950 -0.0000 -0.0999
vn -0.0000 -0.0000 1.0000
vn -0.0000 -0.9988 -0.0495
vn -0.0000 0.9988 -0.0495
vn 0.9797 -0.0000 -0.2007
vn -0.9797 -0.0000 -0.2007
vn -0.9950 -0.0000 -0.0999
vn -0.9208 -0.0000 -0.3901
vn -0.0000 -0.9312 -0.3646
vn -0.0000 0.9312 -0.3646
vn 0.9208 -0.0000 -0.3901
vn -0.0000 -0.0000 -1.0000
vn -1.0000 -0.0000 -0.0000
vn 1.0000 -0.0000 -0.0000
vn -0.0000 -1.0000 -0.0000
vn -0.0000 1.0000 -0.0000
vt 0.875000 0.577104
vt 0.625000 0.625000
vt 0.625000 0.577104
vt 0.375000 0.577104
vt 0.125000 0.625000
vt 0.125000 0.577104
vt 0.375000 0.625000
vt 0.625000 0.750000
vt 0.375000 0.750000
vt 0.375000 1.000000
vt 0.125000 0.750000
vt 0.875000 0.625000
vt 0.625000 0.125000
vt 0.375000 0.172896
vt 0.375000 0.125000
vt 0.625000 0.000000
vt 0.375000 0.000000
vt 0.452104 0.327104
vt 0.625000 0.172896
vt 0.547896 0.327104
vt 0.375000 0.250000
vt 0.452104 0.422896
vt 0.375000 0.500000
vt 0.625000 0.500000
vt 0.625000 0.250000
vt 0.547896 0.422896
vt 0.625000 1.000000
vt 0.875000 0.750000
vt 0.125000 0.500000
vt 0.875000 0.500000
s 0
usemtl マテリアル
f 12/1/1 8/2/1 15/3/1
f 14/4/2 5/5/2 10/6/2
f 7/7/3 4/8/3 3/9/3
f 4/8/4 1/10/4 3/9/4
f 7/7/5 1/11/5 5/5/5
f 6/12/6 4/8/6 8/2/6
f 15/3/7 7/7/7 14/4/7
f 6/13/8 10/14/8 5/15/8
f 2/16/9 5/15/9 1/17/9
f 9/18/10 12/19/10 11/20/10
f 10/21/11 13/22/11 14/23/11
f 15/24/12 11/20/12 12/25/12
f 14/4/13 16/26/13 15/3/13
f 11/20/14 13/22/14 9/18/14
f 12/1/1 6/12/1 8/2/1
f 14/4/2 7/7/2 5/5/2
f 7/7/3 8/2/3 4/8/3
f 4/8/4 2/27/4 1/10/4
f 7/7/5 3/9/5 1/11/5
f 6/12/6 2/28/6 4/8/6
f 15/3/7 8/2/7 7/7/7
f 6/13/8 12/19/8 10/14/8
f 2/16/9 6/13/9 5/15/9
f 9/18/10 10/14/10 12/19/10
f 10/21/11 9/18/11 13/22/11
f 15/24/12 16/26/12 11/20/12
f 14/4/13 13/22/13 16/26/13
f 11/20/14 16/26/14 13/22/14
usemtl 
f 17/17/15 18/16/15 20/25/15 19/21/15
f 19/21/14 20/25/14 24/24/14 23/23/14
f 23/23/16 24/24/16 22/8/16 21/9/16
f 21/9/4 22/8/4 18/27/4 17/10/4
f 19/29/17 23/23/17 21/9/17 17/11/17
f 24/24/18 20/30/18 18/28/18 22/8/18
f 25/17/15 26/16/15 28/25/15 27/21/15
f 27/21/14 28/25/14 32/24/14 31/23/14
f 31/23/16 32/24/16 30/8/16 29/9/16
f 29/9/4 30/8/4 26/27/4 25/10/4
f 27/29/17 31/23/17 29/9/17 25/11/17
f 32/24/18 28/30/18 26/28/18 30/8/18
f 33/17/15 34/16/15 36/25/15 35/21/15
f 35/21/14 36/25/14 40/24/14 39/23/14
f 39/23/16 40/24/16 38/8/16 37/9/16
f 37/9/4 38/8/4 34/27/4 33/10/4
f 35/29/17 39/23/17 37/9/17 33/11/17
f 40/24/18 36/30/18 34/28/18 38/8/18
f 41/17/15 42/16/15 44/25/15 43/21/15
f 43/21/14 44/25/14 48/24/14 47/23/14
f 47/23/16 48/24/16 46/8/16 45/9/16
f 45/9/4 46/8/4 42/27/4 41/10/4
f 43/29/17 47/23/17 45/9/17 41/11/17
f 48/24/18 44/30/18 42/28/18 46/8/18
f 49/17/18 50/16/18 52/25/18 51/21/18
f 51/21/14 52/25/14 56/24/14 55/23/14
f 55/23/17 56/24/17 54/8/17 53/9/17
f 53/9/4 54/8/4 50/27/4 49/10/4
f 51/29/15 55/23/15 53/9/15 49/11/15
f 56/24/16 52/30/16 50/28/16 54/8/16
